<?xml version="1.0" encoding="utf-8" standalone="no"?>
<!DOCTYPE svg PUBLIC "-//W3C//DTD SVG 1.1//EN"
  "http://www.w3.org/Graphics/SVG/1.1/DTD/svg11.dtd">
<!-- Created with matplotlib (https://matplotlib.org/) -->
<svg height="345.6pt" version="1.1" viewBox="0 0 460.8 345.6" width="460.8pt" xmlns="http://www.w3.org/2000/svg" xmlns:xlink="http://www.w3.org/1999/xlink">
 <defs>
  <style type="text/css">
*{stroke-linecap:butt;stroke-linejoin:round;}
  </style>
 </defs>
 <g id="figure_1">
  <g id="patch_1">
   <path d="M 0 345.6 
L 460.8 345.6 
L 460.8 0 
L 0 0 
z
" style="fill:#ffffff;"/>
  </g>
  <g id="axes_1">
   <g id="patch_2">
    <path clip-path="url(#p39861ab666)" d="M 290.895868 217.428099 
Q 170.644453 261.783129 52.490944 305.364341 
" style="fill:none;stroke:#ff7f0e;stroke-linecap:round;stroke-width:2;"/>
    <path clip-path="url(#p39861ab666)" d="M 56.935915 305.856518 
L 52.490944 305.364341 
L 55.551668 302.103671 
" style="fill:none;stroke:#ff7f0e;stroke-linecap:round;stroke-width:2;"/>
   </g>
   <g id="patch_3">
    <path clip-path="url(#p39861ab666)" d="M 290.895868 217.428099 
Q 350.754801 261.586329 408.814316 304.417118 
" style="fill:none;stroke:#ff7f0e;stroke-linecap:round;stroke-width:2;"/>
    <path clip-path="url(#p39861ab666)" d="M 406.782718 300.433074 
L 408.814316 304.417118 
L 404.408122 303.651971 
" style="fill:none;stroke:#ff7f0e;stroke-linecap:round;stroke-width:2;"/>
   </g>
   <g id="patch_4">
    <path clip-path="url(#p39861ab666)" d="M 290.895868 217.428099 
Q 260.901323 128.919607 231.624465 42.528879 
" style="fill:none;stroke:#ff7f0e;stroke-linecap:round;stroke-width:2;"/>
    <path clip-path="url(#p39861ab666)" d="M 231.014116 46.959169 
L 231.624465 42.528879 
L 234.802488 45.675332 
" style="fill:none;stroke:#ff7f0e;stroke-linecap:round;stroke-width:2;"/>
   </g>
   <g id="patch_5">
    <path clip-path="url(#p39861ab666)" d="M 290.895868 217.428099 
Q 231.036935 173.26987 172.977419 130.43908 
" style="fill:none;stroke:#ff7f0e;stroke-linecap:round;stroke-width:2;"/>
    <path clip-path="url(#p39861ab666)" d="M 175.009018 134.423124 
L 172.977419 130.43908 
L 177.383614 131.204227 
" style="fill:none;stroke:#ff7f0e;stroke-linecap:round;stroke-width:2;"/>
   </g>
   <g id="patch_6">
    <path clip-path="url(#p39861ab666)" d="M 48.912397 306.684298 
Q 229.60937 306.684298 408.070276 306.684298 
" style="fill:none;stroke:#ff7f0e;stroke-linecap:round;stroke-width:2;"/>
    <path clip-path="url(#p39861ab666)" d="M 404.070276 304.684298 
L 408.070276 306.684298 
L 404.070276 308.684298 
" style="fill:none;stroke:#ff7f0e;stroke-linecap:round;stroke-width:2;"/>
   </g>
   <g id="patch_7">
    <path clip-path="url(#p39861ab666)" d="M 48.912397 306.684298 
Q 108.964256 218.083193 167.761567 131.333063 
" style="fill:none;stroke:#ff7f0e;stroke-linecap:round;stroke-width:2;"/>
    <path clip-path="url(#p39861ab666)" d="M 163.861799 133.522084 
L 167.761567 131.333063 
L 167.172923 135.76629 
" style="fill:none;stroke:#ff7f0e;stroke-linecap:round;stroke-width:2;"/>
   </g>
   <g id="patch_8">
    <path clip-path="url(#p39861ab666)" d="M 411.887603 306.684298 
Q 321.588271 173.455775 232.543489 42.078227 
" style="fill:none;stroke:#ff7f0e;stroke-linecap:round;stroke-width:2;"/>
    <path clip-path="url(#p39861ab666)" d="M 233.132133 46.511453 
L 232.543489 42.078227 
L 236.443256 44.267247 
" style="fill:none;stroke:#ff7f0e;stroke-linecap:round;stroke-width:2;"/>
   </g>
   <g id="patch_9">
    <path clip-path="url(#p39861ab666)" d="M 230.4 38.915702 
Q 200.596074 82.888708 172.046698 125.010739 
" style="fill:none;stroke:#ff7f0e;stroke-linecap:round;stroke-width:2;"/>
    <path clip-path="url(#p39861ab666)" d="M 175.946465 122.821718 
L 172.046698 125.010739 
L 172.635342 120.577512 
" style="fill:none;stroke:#ff7f0e;stroke-linecap:round;stroke-width:2;"/>
   </g>
   <g id="PathCollection_1">
    <defs>
     <path d="M 0 3.535534 
C 0.937635 3.535534 1.836992 3.163008 2.5 2.5 
C 3.163008 1.836992 3.535534 0.937635 3.535534 0 
C 3.535534 -0.937635 3.163008 -1.836992 2.5 -2.5 
C 1.836992 -3.163008 0.937635 -3.535534 0 -3.535534 
C -0.937635 -3.535534 -1.836992 -3.163008 -2.5 -2.5 
C -3.163008 -1.836992 -3.535534 -0.937635 -3.535534 0 
C -3.535534 0.937635 -3.163008 1.836992 -2.5 2.5 
C -1.836992 3.163008 -0.937635 3.535534 0 3.535534 
z
" id="m79dc4c860e" style="stroke:#1f77b4;"/>
    </defs>
    <g clip-path="url(#p39861ab666)">
     <use style="fill:#1f77b4;stroke:#1f77b4;" x="290.895868" xlink:href="#m79dc4c860e" y="217.428099"/>
     <use style="fill:#1f77b4;stroke:#1f77b4;" x="48.912397" xlink:href="#m79dc4c860e" y="306.684298"/>
     <use style="fill:#1f77b4;stroke:#1f77b4;" x="411.887603" xlink:href="#m79dc4c860e" y="306.684298"/>
     <use style="fill:#1f77b4;stroke:#1f77b4;" x="230.4" xlink:href="#m79dc4c860e" y="38.915702"/>
     <use style="fill:#1f77b4;stroke:#1f77b4;" x="169.904132" xlink:href="#m79dc4c860e" y="128.171901"/>
    </g>
   </g>
   <g id="text_1">
    <g clip-path="url(#p39861ab666)">
     <!-- asr.relax::main -->
     <defs>
      <path d="M 34.28125 27.484375 
Q 23.390625 27.484375 19.1875 25 
Q 14.984375 22.515625 14.984375 16.5 
Q 14.984375 11.71875 18.140625 8.90625 
Q 21.296875 6.109375 26.703125 6.109375 
Q 34.1875 6.109375 38.703125 11.40625 
Q 43.21875 16.703125 43.21875 25.484375 
L 43.21875 27.484375 
z
M 52.203125 31.203125 
L 52.203125 0 
L 43.21875 0 
L 43.21875 8.296875 
Q 40.140625 3.328125 35.546875 0.953125 
Q 30.953125 -1.421875 24.3125 -1.421875 
Q 15.921875 -1.421875 10.953125 3.296875 
Q 6 8.015625 6 15.921875 
Q 6 25.140625 12.171875 29.828125 
Q 18.359375 34.515625 30.609375 34.515625 
L 43.21875 34.515625 
L 43.21875 35.40625 
Q 43.21875 41.609375 39.140625 45 
Q 35.0625 48.390625 27.6875 48.390625 
Q 23 48.390625 18.546875 47.265625 
Q 14.109375 46.140625 10.015625 43.890625 
L 10.015625 52.203125 
Q 14.9375 54.109375 19.578125 55.046875 
Q 24.21875 56 28.609375 56 
Q 40.484375 56 46.34375 49.84375 
Q 52.203125 43.703125 52.203125 31.203125 
z
" id="DejaVuSans-97"/>
      <path d="M 44.28125 53.078125 
L 44.28125 44.578125 
Q 40.484375 46.53125 36.375 47.5 
Q 32.28125 48.484375 27.875 48.484375 
Q 21.1875 48.484375 17.84375 46.4375 
Q 14.5 44.390625 14.5 40.28125 
Q 14.5 37.15625 16.890625 35.375 
Q 19.28125 33.59375 26.515625 31.984375 
L 29.59375 31.296875 
Q 39.15625 29.25 43.1875 25.515625 
Q 47.21875 21.78125 47.21875 15.09375 
Q 47.21875 7.46875 41.1875 3.015625 
Q 35.15625 -1.421875 24.609375 -1.421875 
Q 20.21875 -1.421875 15.453125 -0.5625 
Q 10.6875 0.296875 5.421875 2 
L 5.421875 11.28125 
Q 10.40625 8.6875 15.234375 7.390625 
Q 20.0625 6.109375 24.8125 6.109375 
Q 31.15625 6.109375 34.5625 8.28125 
Q 37.984375 10.453125 37.984375 14.40625 
Q 37.984375 18.0625 35.515625 20.015625 
Q 33.0625 21.96875 24.703125 23.78125 
L 21.578125 24.515625 
Q 13.234375 26.265625 9.515625 29.90625 
Q 5.8125 33.546875 5.8125 39.890625 
Q 5.8125 47.609375 11.28125 51.796875 
Q 16.75 56 26.8125 56 
Q 31.78125 56 36.171875 55.265625 
Q 40.578125 54.546875 44.28125 53.078125 
z
" id="DejaVuSans-115"/>
      <path d="M 41.109375 46.296875 
Q 39.59375 47.171875 37.8125 47.578125 
Q 36.03125 48 33.890625 48 
Q 26.265625 48 22.1875 43.046875 
Q 18.109375 38.09375 18.109375 28.8125 
L 18.109375 0 
L 9.078125 0 
L 9.078125 54.6875 
L 18.109375 54.6875 
L 18.109375 46.1875 
Q 20.953125 51.171875 25.484375 53.578125 
Q 30.03125 56 36.53125 56 
Q 37.453125 56 38.578125 55.875 
Q 39.703125 55.765625 41.0625 55.515625 
z
" id="DejaVuSans-114"/>
      <path d="M 10.6875 12.40625 
L 21 12.40625 
L 21 0 
L 10.6875 0 
z
" id="DejaVuSans-46"/>
      <path d="M 56.203125 29.59375 
L 56.203125 25.203125 
L 14.890625 25.203125 
Q 15.484375 15.921875 20.484375 11.0625 
Q 25.484375 6.203125 34.421875 6.203125 
Q 39.59375 6.203125 44.453125 7.46875 
Q 49.3125 8.734375 54.109375 11.28125 
L 54.109375 2.78125 
Q 49.265625 0.734375 44.1875 -0.34375 
Q 39.109375 -1.421875 33.890625 -1.421875 
Q 20.796875 -1.421875 13.15625 6.1875 
Q 5.515625 13.8125 5.515625 26.8125 
Q 5.515625 40.234375 12.765625 48.109375 
Q 20.015625 56 32.328125 56 
Q 43.359375 56 49.78125 48.890625 
Q 56.203125 41.796875 56.203125 29.59375 
z
M 47.21875 32.234375 
Q 47.125 39.59375 43.09375 43.984375 
Q 39.0625 48.390625 32.421875 48.390625 
Q 24.90625 48.390625 20.390625 44.140625 
Q 15.875 39.890625 15.1875 32.171875 
z
" id="DejaVuSans-101"/>
      <path d="M 9.421875 75.984375 
L 18.40625 75.984375 
L 18.40625 0 
L 9.421875 0 
z
" id="DejaVuSans-108"/>
      <path d="M 54.890625 54.6875 
L 35.109375 28.078125 
L 55.90625 0 
L 45.3125 0 
L 29.390625 21.484375 
L 13.484375 0 
L 2.875 0 
L 24.125 28.609375 
L 4.6875 54.6875 
L 15.28125 54.6875 
L 29.78125 35.203125 
L 44.28125 54.6875 
z
" id="DejaVuSans-120"/>
      <path d="M 11.71875 12.40625 
L 22.015625 12.40625 
L 22.015625 0 
L 11.71875 0 
z
M 11.71875 51.703125 
L 22.015625 51.703125 
L 22.015625 39.3125 
L 11.71875 39.3125 
z
" id="DejaVuSans-58"/>
      <path d="M 52 44.1875 
Q 55.375 50.25 60.0625 53.125 
Q 64.75 56 71.09375 56 
Q 79.640625 56 84.28125 50.015625 
Q 88.921875 44.046875 88.921875 33.015625 
L 88.921875 0 
L 79.890625 0 
L 79.890625 32.71875 
Q 79.890625 40.578125 77.09375 44.375 
Q 74.3125 48.1875 68.609375 48.1875 
Q 61.625 48.1875 57.5625 43.546875 
Q 53.515625 38.921875 53.515625 30.90625 
L 53.515625 0 
L 44.484375 0 
L 44.484375 32.71875 
Q 44.484375 40.625 41.703125 44.40625 
Q 38.921875 48.1875 33.109375 48.1875 
Q 26.21875 48.1875 22.15625 43.53125 
Q 18.109375 38.875 18.109375 30.90625 
L 18.109375 0 
L 9.078125 0 
L 9.078125 54.6875 
L 18.109375 54.6875 
L 18.109375 46.1875 
Q 21.1875 51.21875 25.484375 53.609375 
Q 29.78125 56 35.6875 56 
Q 41.65625 56 45.828125 52.96875 
Q 50 49.953125 52 44.1875 
z
" id="DejaVuSans-109"/>
      <path d="M 9.421875 54.6875 
L 18.40625 54.6875 
L 18.40625 0 
L 9.421875 0 
z
M 9.421875 75.984375 
L 18.40625 75.984375 
L 18.40625 64.59375 
L 9.421875 64.59375 
z
" id="DejaVuSans-105"/>
      <path d="M 54.890625 33.015625 
L 54.890625 0 
L 45.90625 0 
L 45.90625 32.71875 
Q 45.90625 40.484375 42.875 44.328125 
Q 39.84375 48.1875 33.796875 48.1875 
Q 26.515625 48.1875 22.3125 43.546875 
Q 18.109375 38.921875 18.109375 30.90625 
L 18.109375 0 
L 9.078125 0 
L 9.078125 54.6875 
L 18.109375 54.6875 
L 18.109375 46.1875 
Q 21.34375 51.125 25.703125 53.5625 
Q 30.078125 56 35.796875 56 
Q 45.21875 56 50.046875 50.171875 
Q 54.890625 44.34375 54.890625 33.015625 
z
" id="DejaVuSans-110"/>
     </defs>
     <g transform="translate(246.315868 214.932474)scale(0.12 -0.12)">
      <use xlink:href="#DejaVuSans-97"/>
      <use x="61.279297" xlink:href="#DejaVuSans-115"/>
      <use x="113.378906" xlink:href="#DejaVuSans-114"/>
      <use x="145.367188" xlink:href="#DejaVuSans-46"/>
      <use x="177.154297" xlink:href="#DejaVuSans-114"/>
      <use x="216.017578" xlink:href="#DejaVuSans-101"/>
      <use x="277.541016" xlink:href="#DejaVuSans-108"/>
      <use x="305.324219" xlink:href="#DejaVuSans-97"/>
      <use x="366.603516" xlink:href="#DejaVuSans-120"/>
      <use x="425.783203" xlink:href="#DejaVuSans-58"/>
      <use x="459.474609" xlink:href="#DejaVuSans-58"/>
      <use x="493.166016" xlink:href="#DejaVuSans-109"/>
      <use x="590.578125" xlink:href="#DejaVuSans-97"/>
      <use x="651.857422" xlink:href="#DejaVuSans-105"/>
      <use x="679.640625" xlink:href="#DejaVuSans-110"/>
     </g>
    </g>
   </g>
   <g id="text_2">
    <g clip-path="url(#p39861ab666)">
     <!-- asr.gs::calculate -->
     <defs>
      <path d="M 45.40625 27.984375 
Q 45.40625 37.75 41.375 43.109375 
Q 37.359375 48.484375 30.078125 48.484375 
Q 22.859375 48.484375 18.828125 43.109375 
Q 14.796875 37.75 14.796875 27.984375 
Q 14.796875 18.265625 18.828125 12.890625 
Q 22.859375 7.515625 30.078125 7.515625 
Q 37.359375 7.515625 41.375 12.890625 
Q 45.40625 18.265625 45.40625 27.984375 
z
M 54.390625 6.78125 
Q 54.390625 -7.171875 48.1875 -13.984375 
Q 42 -20.796875 29.203125 -20.796875 
Q 24.46875 -20.796875 20.265625 -20.09375 
Q 16.0625 -19.390625 12.109375 -17.921875 
L 12.109375 -9.1875 
Q 16.0625 -11.328125 19.921875 -12.34375 
Q 23.78125 -13.375 27.78125 -13.375 
Q 36.625 -13.375 41.015625 -8.765625 
Q 45.40625 -4.15625 45.40625 5.171875 
L 45.40625 9.625 
Q 42.625 4.78125 38.28125 2.390625 
Q 33.9375 0 27.875 0 
Q 17.828125 0 11.671875 7.65625 
Q 5.515625 15.328125 5.515625 27.984375 
Q 5.515625 40.671875 11.671875 48.328125 
Q 17.828125 56 27.875 56 
Q 33.9375 56 38.28125 53.609375 
Q 42.625 51.21875 45.40625 46.390625 
L 45.40625 54.6875 
L 54.390625 54.6875 
z
" id="DejaVuSans-103"/>
      <path d="M 48.78125 52.59375 
L 48.78125 44.1875 
Q 44.96875 46.296875 41.140625 47.34375 
Q 37.3125 48.390625 33.40625 48.390625 
Q 24.65625 48.390625 19.8125 42.84375 
Q 14.984375 37.3125 14.984375 27.296875 
Q 14.984375 17.28125 19.8125 11.734375 
Q 24.65625 6.203125 33.40625 6.203125 
Q 37.3125 6.203125 41.140625 7.25 
Q 44.96875 8.296875 48.78125 10.40625 
L 48.78125 2.09375 
Q 45.015625 0.34375 40.984375 -0.53125 
Q 36.96875 -1.421875 32.421875 -1.421875 
Q 20.0625 -1.421875 12.78125 6.34375 
Q 5.515625 14.109375 5.515625 27.296875 
Q 5.515625 40.671875 12.859375 48.328125 
Q 20.21875 56 33.015625 56 
Q 37.15625 56 41.109375 55.140625 
Q 45.0625 54.296875 48.78125 52.59375 
z
" id="DejaVuSans-99"/>
      <path d="M 8.5 21.578125 
L 8.5 54.6875 
L 17.484375 54.6875 
L 17.484375 21.921875 
Q 17.484375 14.15625 20.5 10.265625 
Q 23.53125 6.390625 29.59375 6.390625 
Q 36.859375 6.390625 41.078125 11.03125 
Q 45.3125 15.671875 45.3125 23.6875 
L 45.3125 54.6875 
L 54.296875 54.6875 
L 54.296875 0 
L 45.3125 0 
L 45.3125 8.40625 
Q 42.046875 3.421875 37.71875 1 
Q 33.40625 -1.421875 27.6875 -1.421875 
Q 18.265625 -1.421875 13.375 4.4375 
Q 8.5 10.296875 8.5 21.578125 
z
M 31.109375 56 
z
" id="DejaVuSans-117"/>
      <path d="M 18.3125 70.21875 
L 18.3125 54.6875 
L 36.8125 54.6875 
L 36.8125 47.703125 
L 18.3125 47.703125 
L 18.3125 18.015625 
Q 18.3125 11.328125 20.140625 9.421875 
Q 21.96875 7.515625 27.59375 7.515625 
L 36.8125 7.515625 
L 36.8125 0 
L 27.59375 0 
Q 17.1875 0 13.234375 3.875 
Q 9.28125 7.765625 9.28125 18.015625 
L 9.28125 47.703125 
L 2.6875 47.703125 
L 2.6875 54.6875 
L 9.28125 54.6875 
L 9.28125 70.21875 
z
" id="DejaVuSans-116"/>
     </defs>
     <g transform="translate(0.174584 304.188673)scale(0.12 -0.12)">
      <use xlink:href="#DejaVuSans-97"/>
      <use x="61.279297" xlink:href="#DejaVuSans-115"/>
      <use x="113.378906" xlink:href="#DejaVuSans-114"/>
      <use x="145.367188" xlink:href="#DejaVuSans-46"/>
      <use x="177.154297" xlink:href="#DejaVuSans-103"/>
      <use x="240.630859" xlink:href="#DejaVuSans-115"/>
      <use x="292.730469" xlink:href="#DejaVuSans-58"/>
      <use x="326.421875" xlink:href="#DejaVuSans-58"/>
      <use x="360.113281" xlink:href="#DejaVuSans-99"/>
      <use x="415.09375" xlink:href="#DejaVuSans-97"/>
      <use x="476.373047" xlink:href="#DejaVuSans-108"/>
      <use x="504.15625" xlink:href="#DejaVuSans-99"/>
      <use x="559.136719" xlink:href="#DejaVuSans-117"/>
      <use x="622.515625" xlink:href="#DejaVuSans-108"/>
      <use x="650.298828" xlink:href="#DejaVuSans-97"/>
      <use x="711.578125" xlink:href="#DejaVuSans-116"/>
      <use x="750.787109" xlink:href="#DejaVuSans-101"/>
     </g>
    </g>
   </g>
   <g id="text_3">
    <g clip-path="url(#p39861ab666)">
     <!-- asr.magstate::main -->
     <g transform="translate(353.696978 304.188673)scale(0.12 -0.12)">
      <use xlink:href="#DejaVuSans-97"/>
      <use x="61.279297" xlink:href="#DejaVuSans-115"/>
      <use x="113.378906" xlink:href="#DejaVuSans-114"/>
      <use x="145.367188" xlink:href="#DejaVuSans-46"/>
      <use x="177.154297" xlink:href="#DejaVuSans-109"/>
      <use x="274.566406" xlink:href="#DejaVuSans-97"/>
      <use x="335.845703" xlink:href="#DejaVuSans-103"/>
      <use x="399.322266" xlink:href="#DejaVuSans-115"/>
      <use x="451.421875" xlink:href="#DejaVuSans-116"/>
      <use x="490.630859" xlink:href="#DejaVuSans-97"/>
      <use x="551.910156" xlink:href="#DejaVuSans-116"/>
      <use x="591.119141" xlink:href="#DejaVuSans-101"/>
      <use x="652.642578" xlink:href="#DejaVuSans-58"/>
      <use x="686.333984" xlink:href="#DejaVuSans-58"/>
      <use x="720.025391" xlink:href="#DejaVuSans-109"/>
      <use x="817.4375" xlink:href="#DejaVuSans-97"/>
      <use x="878.716797" xlink:href="#DejaVuSans-105"/>
      <use x="906.5" xlink:href="#DejaVuSans-110"/>
     </g>
    </g>
   </g>
   <g id="text_4">
    <g clip-path="url(#p39861ab666)">
     <!-- asr.magnetic_anisotropy::main -->
     <defs>
      <path d="M 50.984375 -16.609375 
L 50.984375 -23.578125 
L -0.984375 -23.578125 
L -0.984375 -16.609375 
z
" id="DejaVuSans-95"/>
      <path d="M 30.609375 48.390625 
Q 23.390625 48.390625 19.1875 42.75 
Q 14.984375 37.109375 14.984375 27.296875 
Q 14.984375 17.484375 19.15625 11.84375 
Q 23.34375 6.203125 30.609375 6.203125 
Q 37.796875 6.203125 41.984375 11.859375 
Q 46.1875 17.53125 46.1875 27.296875 
Q 46.1875 37.015625 41.984375 42.703125 
Q 37.796875 48.390625 30.609375 48.390625 
z
M 30.609375 56 
Q 42.328125 56 49.015625 48.375 
Q 55.71875 40.765625 55.71875 27.296875 
Q 55.71875 13.875 49.015625 6.21875 
Q 42.328125 -1.421875 30.609375 -1.421875 
Q 18.84375 -1.421875 12.171875 6.21875 
Q 5.515625 13.875 5.515625 27.296875 
Q 5.515625 40.765625 12.171875 48.375 
Q 18.84375 56 30.609375 56 
z
" id="DejaVuSans-111"/>
      <path d="M 18.109375 8.203125 
L 18.109375 -20.796875 
L 9.078125 -20.796875 
L 9.078125 54.6875 
L 18.109375 54.6875 
L 18.109375 46.390625 
Q 20.953125 51.265625 25.265625 53.625 
Q 29.59375 56 35.59375 56 
Q 45.5625 56 51.78125 48.09375 
Q 58.015625 40.1875 58.015625 27.296875 
Q 58.015625 14.40625 51.78125 6.484375 
Q 45.5625 -1.421875 35.59375 -1.421875 
Q 29.59375 -1.421875 25.265625 0.953125 
Q 20.953125 3.328125 18.109375 8.203125 
z
M 48.6875 27.296875 
Q 48.6875 37.203125 44.609375 42.84375 
Q 40.53125 48.484375 33.40625 48.484375 
Q 26.265625 48.484375 22.1875 42.84375 
Q 18.109375 37.203125 18.109375 27.296875 
Q 18.109375 17.390625 22.1875 11.75 
Q 26.265625 6.109375 33.40625 6.109375 
Q 40.53125 6.109375 44.609375 11.75 
Q 48.6875 17.390625 48.6875 27.296875 
z
" id="DejaVuSans-112"/>
      <path d="M 32.171875 -5.078125 
Q 28.375 -14.84375 24.75 -17.8125 
Q 21.140625 -20.796875 15.09375 -20.796875 
L 7.90625 -20.796875 
L 7.90625 -13.28125 
L 13.1875 -13.28125 
Q 16.890625 -13.28125 18.9375 -11.515625 
Q 21 -9.765625 23.484375 -3.21875 
L 25.09375 0.875 
L 2.984375 54.6875 
L 12.5 54.6875 
L 29.59375 11.921875 
L 46.6875 54.6875 
L 56.203125 54.6875 
z
" id="DejaVuSans-121"/>
     </defs>
     <g transform="translate(138.372187 36.086327)scale(0.12 -0.12)">
      <use xlink:href="#DejaVuSans-97"/>
      <use x="61.279297" xlink:href="#DejaVuSans-115"/>
      <use x="113.378906" xlink:href="#DejaVuSans-114"/>
      <use x="145.367188" xlink:href="#DejaVuSans-46"/>
      <use x="177.154297" xlink:href="#DejaVuSans-109"/>
      <use x="274.566406" xlink:href="#DejaVuSans-97"/>
      <use x="335.845703" xlink:href="#DejaVuSans-103"/>
      <use x="399.322266" xlink:href="#DejaVuSans-110"/>
      <use x="462.701172" xlink:href="#DejaVuSans-101"/>
      <use x="524.224609" xlink:href="#DejaVuSans-116"/>
      <use x="563.433594" xlink:href="#DejaVuSans-105"/>
      <use x="591.216797" xlink:href="#DejaVuSans-99"/>
      <use x="646.197266" xlink:href="#DejaVuSans-95"/>
      <use x="696.197266" xlink:href="#DejaVuSans-97"/>
      <use x="757.476562" xlink:href="#DejaVuSans-110"/>
      <use x="820.855469" xlink:href="#DejaVuSans-105"/>
      <use x="848.638672" xlink:href="#DejaVuSans-115"/>
      <use x="900.738281" xlink:href="#DejaVuSans-111"/>
      <use x="961.919922" xlink:href="#DejaVuSans-116"/>
      <use x="1001.128906" xlink:href="#DejaVuSans-114"/>
      <use x="1039.992188" xlink:href="#DejaVuSans-111"/>
      <use x="1101.173828" xlink:href="#DejaVuSans-112"/>
      <use x="1164.650391" xlink:href="#DejaVuSans-121"/>
      <use x="1216.580078" xlink:href="#DejaVuSans-58"/>
      <use x="1250.271484" xlink:href="#DejaVuSans-58"/>
      <use x="1283.962891" xlink:href="#DejaVuSans-109"/>
      <use x="1381.375" xlink:href="#DejaVuSans-97"/>
      <use x="1442.654297" xlink:href="#DejaVuSans-105"/>
      <use x="1470.4375" xlink:href="#DejaVuSans-110"/>
     </g>
    </g>
   </g>
   <g id="text_5">
    <g clip-path="url(#p39861ab666)">
     <!-- asr.gs::main -->
     <g transform="translate(133.307882 125.676276)scale(0.12 -0.12)">
      <use xlink:href="#DejaVuSans-97"/>
      <use x="61.279297" xlink:href="#DejaVuSans-115"/>
      <use x="113.378906" xlink:href="#DejaVuSans-114"/>
      <use x="145.367188" xlink:href="#DejaVuSans-46"/>
      <use x="177.154297" xlink:href="#DejaVuSans-103"/>
      <use x="240.630859" xlink:href="#DejaVuSans-115"/>
      <use x="292.730469" xlink:href="#DejaVuSans-58"/>
      <use x="326.421875" xlink:href="#DejaVuSans-58"/>
      <use x="360.113281" xlink:href="#DejaVuSans-109"/>
      <use x="457.525391" xlink:href="#DejaVuSans-97"/>
      <use x="518.804688" xlink:href="#DejaVuSans-105"/>
      <use x="546.587891" xlink:href="#DejaVuSans-110"/>
     </g>
    </g>
   </g>
  </g>
 </g>
 <defs>
  <clipPath id="p39861ab666">
   <rect height="324" width="439.2" x="10.8" y="10.8"/>
  </clipPath>
 </defs>
</svg>
