<?xml version="1.0" encoding="utf-8" standalone="no"?>
<!DOCTYPE svg PUBLIC "-//W3C//DTD SVG 1.1//EN"
  "http://www.w3.org/Graphics/SVG/1.1/DTD/svg11.dtd">
<!-- Created with matplotlib (https://matplotlib.org/) -->
<svg height="345.6pt" version="1.1" viewBox="0 0 460.8 345.6" width="460.8pt" xmlns="http://www.w3.org/2000/svg" xmlns:xlink="http://www.w3.org/1999/xlink">
 <defs>
  <style type="text/css">
*{stroke-linecap:butt;stroke-linejoin:round;}
  </style>
 </defs>
 <g id="figure_1">
  <g id="patch_1">
   <path d="M 0 345.6 
L 460.8 345.6 
L 460.8 0 
L 0 0 
z
" style="fill:#ffffff;"/>
  </g>
  <g id="axes_1">
   <g id="patch_2">
    <path clip-path="url(#pae40dbe716)" d="M 48.912397 306.684298 
Q 229.60937 306.684298 408.070276 306.684298 
" style="fill:none;stroke:#ff7f0e;stroke-linecap:round;stroke-width:2;"/>
    <path clip-path="url(#pae40dbe716)" d="M 404.070276 304.684298 
L 408.070276 306.684298 
L 404.070276 308.684298 
" style="fill:none;stroke:#ff7f0e;stroke-linecap:round;stroke-width:2;"/>
   </g>
   <g id="patch_3">
    <path clip-path="url(#pae40dbe716)" d="M 48.912397 306.684298 
Q 78.771708 253.818631 107.53134 202.899939 
" style="fill:none;stroke:#ff7f0e;stroke-linecap:round;stroke-width:2;"/>
    <path clip-path="url(#pae40dbe716)" d="M 103.822748 205.399207 
L 107.53134 202.899939 
L 107.3056 207.366374 
" style="fill:none;stroke:#ff7f0e;stroke-linecap:round;stroke-width:2;"/>
   </g>
   <g id="patch_4">
    <path clip-path="url(#pae40dbe716)" d="M 411.887603 306.684298 
Q 276.546607 280.059839 143.399629 253.866991 
" style="fill:none;stroke:#ff7f0e;stroke-linecap:round;stroke-width:2;"/>
    <path clip-path="url(#pae40dbe716)" d="M 146.938363 256.601467 
L 143.399629 253.866991 
L 147.71045 252.67669 
" style="fill:none;stroke:#ff7f0e;stroke-linecap:round;stroke-width:2;"/>
   </g>
   <g id="patch_5">
    <path clip-path="url(#pae40dbe716)" d="M 139.656198 253.130579 
Q 124.920854 227.041772 111.285189 202.899939 
" style="fill:none;stroke:#ff7f0e;stroke-linecap:round;stroke-width:2;"/>
    <path clip-path="url(#pae40dbe716)" d="M 111.510929 207.366374 
L 111.285189 202.899939 
L 114.993781 205.399207 
" style="fill:none;stroke:#ff7f0e;stroke-linecap:round;stroke-width:2;"/>
   </g>
   <g id="patch_6">
    <path clip-path="url(#pae40dbe716)" d="M 290.895868 92.469421 
Q 276.160523 66.380615 262.524858 42.238782 
" style="fill:none;stroke:#ff7f0e;stroke-linecap:round;stroke-width:2;"/>
    <path clip-path="url(#pae40dbe716)" d="M 262.750599 46.705216 
L 262.524858 42.238782 
L 266.23345 44.73805 
" style="fill:none;stroke:#ff7f0e;stroke-linecap:round;stroke-width:2;"/>
   </g>
   <g id="patch_7">
    <path clip-path="url(#pae40dbe716)" d="M 290.895868 92.469421 
Q 305.631212 118.558228 319.266877 142.700061 
" style="fill:none;stroke:#ff7f0e;stroke-linecap:round;stroke-width:2;"/>
    <path clip-path="url(#pae40dbe716)" d="M 319.041137 138.233626 
L 319.266877 142.700061 
L 315.558285 140.200793 
" style="fill:none;stroke:#ff7f0e;stroke-linecap:round;stroke-width:2;"/>
   </g>
   <g id="patch_8">
    <path clip-path="url(#pae40dbe716)" d="M 260.647934 38.915702 
Q 215.664425 118.558637 171.780595 196.254598 
" style="fill:none;stroke:#ff7f0e;stroke-linecap:round;stroke-width:2;"/>
    <path clip-path="url(#pae40dbe716)" d="M 175.489187 193.755329 
L 171.780595 196.254598 
L 172.006335 191.788163 
" style="fill:none;stroke:#ff7f0e;stroke-linecap:round;stroke-width:2;"/>
   </g>
   <g id="patch_9">
    <path clip-path="url(#pae40dbe716)" d="M 169.904132 199.57686 
Q 244.778569 173.063944 317.545181 147.297406 
" style="fill:none;stroke:#ff7f0e;stroke-linecap:round;stroke-width:2;"/>
    <path clip-path="url(#pae40dbe716)" d="M 313.107012 146.747271 
L 317.545181 147.297406 
L 314.442171 150.517861 
" style="fill:none;stroke:#ff7f0e;stroke-linecap:round;stroke-width:2;"/>
   </g>
   <g id="PathCollection_1">
    <defs>
     <path d="M 0 3.535534 
C 0.937635 3.535534 1.836992 3.163008 2.5 2.5 
C 3.163008 1.836992 3.535534 0.937635 3.535534 0 
C 3.535534 -0.937635 3.163008 -1.836992 2.5 -2.5 
C 1.836992 -3.163008 0.937635 -3.535534 0 -3.535534 
C -0.937635 -3.535534 -1.836992 -3.163008 -2.5 -2.5 
C -3.163008 -1.836992 -3.535534 -0.937635 -3.535534 0 
C -3.535534 0.937635 -3.163008 1.836992 -2.5 2.5 
C -1.836992 3.163008 -0.937635 3.535534 0 3.535534 
z
" id="md06c058ea4" style="stroke:#1f77b4;"/>
    </defs>
    <g clip-path="url(#pae40dbe716)">
     <use style="fill:#1f77b4;stroke:#1f77b4;" x="48.912397" xlink:href="#md06c058ea4" y="306.684298"/>
     <use style="fill:#1f77b4;stroke:#1f77b4;" x="411.887603" xlink:href="#md06c058ea4" y="306.684298"/>
     <use style="fill:#1f77b4;stroke:#1f77b4;" x="139.656198" xlink:href="#md06c058ea4" y="253.130579"/>
     <use style="fill:#1f77b4;stroke:#1f77b4;" x="109.408264" xlink:href="#md06c058ea4" y="199.57686"/>
     <use style="fill:#1f77b4;stroke:#1f77b4;" x="290.895868" xlink:href="#md06c058ea4" y="92.469421"/>
     <use style="fill:#1f77b4;stroke:#1f77b4;" x="260.647934" xlink:href="#md06c058ea4" y="38.915702"/>
     <use style="fill:#1f77b4;stroke:#1f77b4;" x="169.904132" xlink:href="#md06c058ea4" y="199.57686"/>
     <use style="fill:#1f77b4;stroke:#1f77b4;" x="321.143802" xlink:href="#md06c058ea4" y="146.02314"/>
    </g>
   </g>
   <g id="PathCollection_2">
    <g clip-path="url(#pae40dbe716)">
     <use style="fill:#1f77b4;stroke:#1f77b4;" x="48.912397" xlink:href="#md06c058ea4" y="306.684298"/>
     <use style="fill:#1f77b4;stroke:#1f77b4;" x="411.887603" xlink:href="#md06c058ea4" y="306.684298"/>
     <use style="fill:#1f77b4;stroke:#1f77b4;" x="139.656198" xlink:href="#md06c058ea4" y="253.130579"/>
     <use style="fill:#1f77b4;stroke:#1f77b4;" x="109.408264" xlink:href="#md06c058ea4" y="199.57686"/>
     <use style="fill:#1f77b4;stroke:#1f77b4;" x="290.895868" xlink:href="#md06c058ea4" y="92.469421"/>
     <use style="fill:#1f77b4;stroke:#1f77b4;" x="260.647934" xlink:href="#md06c058ea4" y="38.915702"/>
     <use style="fill:#1f77b4;stroke:#1f77b4;" x="169.904132" xlink:href="#md06c058ea4" y="199.57686"/>
     <use style="fill:#1f77b4;stroke:#1f77b4;" x="321.143802" xlink:href="#md06c058ea4" y="146.02314"/>
    </g>
   </g>
  </g>
 </g>
 <defs>
  <clipPath id="pae40dbe716">
   <rect height="324" width="439.2" x="10.8" y="10.8"/>
  </clipPath>
 </defs>
</svg>
